<?xml version="1.0" encoding="UTF-8" standalone="no"?>
<!DOCTYPE svg PUBLIC "-//W3C//DTD SVG 1.1//EN" "http://www.w3.org/Graphics/SVG/1.1/DTD/svg11.dtd">
<!-- Created with Vectornator (http://vectornator.io/) -->
<svg height="100%" stroke-miterlimit="10" style="fill-rule:nonzero;clip-rule:evenodd;stroke-linecap:round;stroke-linejoin:round;" version="1.1" viewBox="0 0 32 32" width="100%" xml:space="preserve" xmlns="http://www.w3.org/2000/svg" xmlns:xlink="http://www.w3.org/1999/xlink">
<defs>
<linearGradient gradientTransform="matrix(1 0 0 1 0 0)" gradientUnits="userSpaceOnUse" id="LinearGradient" x1="2" x2="30" y1="16" y2="16">
<stop offset="0" stop-color="#e6499f"/>
<stop offset="1" stop-color="#8c5cf5"/>
</linearGradient>
</defs>
<g id="layer1">
<path d="M3 2C2.44774 2.00006 2.00005 2.44774 2 3L2 7C2 7.55228 2.44772 8 3 8C3.55228 8 4 7.55229 4 7L4 4L7 4C7.55228 4 8 3.55228 8 3C8 2.44772 7.55228 2 7 2L3 2ZM25 2C24.4477 2 24 2.44772 24 3C24 3.55228 24.4477 4 25 4L28 4L28 7C28 7.55228 28.4477 8 29 8C29.5523 8 30 7.55229 30 7L30 3C29.9999 2.44774 29.5523 2.00005 29 2L25 2ZM13.9062 6C12.9814 6 12.1323 6.51657 11.7188 7.34375L11.375 8L9 8C7.35499 8 6 9.35499 6 11L6 21C6 22.645 7.35499 24 9 24L23 24C24.645 24 26 22.645 26 21L26 11C26 9.35499 24.645 8 23 8L20.625 8L20.2812 7.34375C19.8677 6.51657 19.0186 6 18.0938 6L13.9062 6ZM13.9062 8L18.0938 8C18.2653 8 18.4233 8.09665 18.5 8.25L19.0938 9.4375C19.2632 9.77628 19.6212 10 20 10L23 10C23.5641 10 24 10.4359 24 11L24 21C24 21.5641 23.5641 22 23 22L9 22C8.43587 22 8 21.5641 8 21L8 11C8 10.4359 8.43587 10 9 10L12 10C12.3788 10 12.7368 9.77628 12.9062 9.4375L13.5 8.25C13.5767 8.0966 13.7348 8 13.9062 8ZM21 11C20.4477 11 20 11.4477 20 12C20 12.5523 20.4477 13 21 13C21.5523 13 22 12.5523 22 12C22 11.4477 21.5523 11 21 11ZM16 12C13.8027 12 12 13.8027 12 16C12 18.1973 13.8027 20 16 20C18.1973 20 20 18.1973 20 16C20 13.8027 18.1973 12 16 12ZM16 14C17.1164 14 18 14.8836 18 16C18 17.1164 17.1164 18 16 18C14.8836 18 14 17.1164 14 16C14 14.8836 14.8836 14 16 14ZM3 24C2.44772 24 2 24.4477 2 25L2 29C2.00006 29.5523 2.44774 29.9999 3 30L7 30C7.55228 30 8 29.5523 8 29C8 28.4477 7.55228 28 7 28L4 28L4 25C4 24.4477 3.55228 24 3 24ZM29 24C28.4477 24 28 24.4477 28 25L28 28L25 28C24.4477 28 24 28.4477 24 29C24 29.5523 24.4477 30 25 30L29 30C29.5523 29.9999 29.9999 29.5523 30 29L30 25C30 24.4477 29.5523 24 29 24Z" fill="url(#LinearGradient)" fill-rule="nonzero" opacity="1" stroke="none"/>
</g>
</svg>
